<svg width="30" height="30" viewBox="0 0 44 44" fill="none" xmlns="http://www.w3.org/2000/svg">
	<path
		d="M19.0714 12.7144H3.5C2.39543 12.7144 1.5 13.6098 1.5 14.7144V31.8651C1.5 32.9697 2.39543 33.8651 3.5 33.8651H9.01667V40.5358L17.6071 33.8651H31.7143C32.8189 33.8651 33.7143 32.9697 33.7143 31.8651V27.3572"
		stroke="inherit" stroke-width="
		2" stroke-linecap="round" />
	<path
		d="M36.1548 15.826C38.0583 13.9224 41.1781 13.0658 42.5 13.0658C40.6493 12.537 37.6816 12.5582 35.6472 10.2739C33.6127 7.9896 33.6273 5.51496 33.3629 3.92865C33.3629 4.98619 32.6966 8.11651 31.0786 10.2739C29.5557 12.3044 25.0506 13.0658 23.4643 13.0658C24.7862 13.0658 28.4136 13.9224 30.3172 15.826C32.5063 18.0151 33.0985 21.3781 33.3629 22.9644C33.6273 21.3781 34.2512 17.7295 36.1548 15.826Z"
		stroke="inherit" stroke-width="2" stroke-linejoin="round" />
	<path
		d="M23.9524 5.57595C24.6845 4.84381 25.8844 4.51435 26.3929 4.51435C25.6811 4.31097 24.5396 4.31911 23.7572 3.44054C22.9747 2.56197 22.9803 1.61018 22.8786 1.00006C22.8786 1.40681 22.6223 2.61078 22 3.44054C21.4143 4.22149 19.6816 4.51435 19.0714 4.51435C19.5799 4.51435 20.975 4.84381 21.7072 5.57595C22.5491 6.41792 22.7769 7.71137 22.8786 8.32149C22.9803 7.71137 23.2203 6.3081 23.9524 5.57595Z"
		stroke="inherit" stroke-width="2" stroke-linejoin="round" />
</svg>