<svg width="23" height="23" viewBox="0 0 23 23" xmlns="http://www.w3.org/2000/svg">
	<path
		d="M21 11.375C21 6.05926 16.6907 1.75 11.375 1.75C6.05926 1.75 1.75 6.05926 1.75 11.375C1.75 13.0441 2.17443 14.6114 2.92008 15.9779L3.07959 16.2707L3.00439 16.5954L2.05078 20.6798L6.03385 19.6898L6.36995 19.6055L6.67301 19.7752C8.06268 20.5549 9.66551 21 11.375 21C16.6907 21 21 16.6907 21 11.375ZM12.5417 12.8333C13.0249 12.8333 13.4167 13.2251 13.4167 13.7083C13.4167 14.1916 13.0249 14.5833 12.5417 14.5833H7.875C7.39175 14.5833 7 14.1916 7 13.7083C7 13.2251 7.39175 12.8333 7.875 12.8333H12.5417ZM14.875 8.16667C15.3582 8.16667 15.75 8.55842 15.75 9.04167C15.75 9.52492 15.3582 9.91667 14.875 9.91667H7.875C7.39175 9.91667 7 9.52492 7 9.04167C7 8.55842 7.39175 8.16667 7.875 8.16667H14.875ZM22.75 11.375C22.75 17.6572 17.6572 22.75 11.375 22.75C9.48354 22.75 7.6983 22.2866 6.12728 21.4683L1.08577 22.7238C0.790231 22.7972 0.477853 22.7119 0.260905 22.4982C0.0439837 22.2845 -0.0462105 21.9734 0.0227865 21.6768L1.22591 16.5156C0.441995 14.9708 0 13.2234 0 11.375C0 5.09276 5.09276 0 11.375 0C17.6572 0 22.75 5.09276 22.75 11.375Z"
		fill="inherit
" stroke-width="0" />
</svg>