<svg width="30" height="30" viewBox="0 0 30 30" fill="none" xmlns="http://www.w3.org/2000/svg">
	<path
		d="M12.75 8.5H2.75C1.64543 8.5 0.75 9.39543 0.75 10.5V20.9444C0.75 22.049 1.64543 22.9444 2.75 22.9444H5.88333V27.5L11.75 22.9444H20.75C21.8546 22.9444 22.75 22.049 22.75 20.9444V18.5"
		stroke="white" stroke-width="1.5" stroke-linecap="round" />
	<path
		d="M24.4167 10.625C25.7167 9.325 27.8472 8.74 28.75 8.74C27.4861 8.37889 25.4594 8.39333 24.07 6.83333C22.6806 5.27333 22.6906 3.58333 22.51 2.5C22.51 3.22222 22.055 5.36 20.95 6.83333C19.91 8.22 16.8333 8.74 15.75 8.74C16.6528 8.74 19.13 9.325 20.43 10.625C21.925 12.12 22.3294 14.4167 22.51 15.5C22.6906 14.4167 23.1167 11.925 24.4167 10.625Z"
		stroke="white" stroke-width="1.2" stroke-linejoin="round" />
	<path
		d="M16.0833 3.625C16.5833 3.125 17.4028 2.9 17.75 2.9C17.2639 2.76111 16.4844 2.76667 15.95 2.16667C15.4156 1.56667 15.4194 0.916667 15.35 0.5C15.35 0.777778 15.175 1.6 14.75 2.16667C14.35 2.7 13.1667 2.9 12.75 2.9C13.0972 2.9 14.05 3.125 14.55 3.625C15.125 4.2 15.2806 5.08333 15.35 5.5C15.4194 5.08333 15.5833 4.125 16.0833 3.625Z"
		stroke="white" stroke-linejoin="round" />
</svg>